<svg version="1" xmlns="http://www.w3.org/2000/svg" width="400" height="400" viewBox="0 0 300.000000 300.000000"><path d="M134.7 50.5c-15.1 5.2-27.5 23.2-27.3 39.7.1 3.1-.2 5.4-.6 5.1-.5-.2-1.3.7-2 2.1-.6 1.4-1.5 2.6-2 2.6s-.6.4-.3 1c.3.5.1 1-.5 1-1 0-5.7 9.6-6.4 13-.2.8-.7 2.4-1.2 3.5-1.7 3.8-1.1 31.3.9 40 1.9 8.2 5.3 20.8 6.4 23.5.3.8.5 1.8.5 2.2-.1.4 1 4.4 2.4 8.9s2.7 8.9 3 9.8c1.8 7.7 2.5 9.5 4 11.3 1.1 1.1 2.7 2.4 3.7 3 3.2 1.7 12.9 2.9 23.7 2.8h10.5v13.4l.1 13.3-4.7 2.3c-4.2 1.9-14.9 11.7-14.9 13.5 0 .4-.8 1.7-1.7 2.8-1.5 1.9-2.9 2.2-9 2.3-11.4.2-18.4 4.7-22.2 14.1-.7 1.8-1.1 4.2-.8 5.3.3 1.1.2 2-.3 2-1 0 .8 8 2.2 9.7.8 1 13.2 1.3 60.4 1.3 36.9 0 59.4-.4 59.4-1 0-.5-2.1-3.9-4.6-7.5-3.8-5.4-4.2-6.5-2.7-6.5 5.1 0 12.9 7.9 12.5 12.7-.2 2.2 0 2.3 8.8 2.3h9l-.5-4.7c-1.2-11.5-11.4-24.8-20.7-26.9-4.1-1-13.2-1.1-17.2-.2-3.4.8-4 .6-5.4-1.4-4.9-7.3-19.4-18-26.3-19.3-3.6-.7-3.5-.4-4.5-18.6l-.5-11.6 4.1-.7c2.3-.3 4.5-.4 5-.1.4.3 1 .1 1.2-.4.1-.5 1.9-1.2 3.8-1.5 4.4-.7 25.1-7.2 30.5-9.6 2.2-.9 6.9-3 10.5-4.6 11.2-4.9 11.1-4.7 10.5-13.9-.6-8-1.2-14.5-2-22-1.1-8.9-1.4-11.2-2-14.8-.4-2.1-.8-5.5-.9-7.6-.1-2-.5-4.1-.8-4.6-.3-.6-.8-3.3-1.2-6-1.2-10.4-1.7-12.9-3.7-22.8-3.4-16.3-5.7-24.5-7.6-27.1-3.7-5-11.6-8.6-24.3-11.2-3.2-.6-21.7-.6-25.2.1-2.5.5-2.8.2-2.8-2 0-2.8-3.2-9.9-5.9-12.9-4.3-4.9-14-7.3-20.4-5.1zM119 282.4c0 .3-1.2 3.7-2.6 7.6-2.6 7-2.7 7.1-4 4.4-2-3.8-1.7-8.1.6-10.4 1.7-1.7 6-2.8 6-1.6z"/></svg>